<?xml version="1.0" encoding="utf-8"?>
<!-- Generator: Adobe Illustrator 25.1.0, SVG Export Plug-In . SVG Version: 6.00 Build 0)  -->
<svg version="1.1" id="Capa_1" xmlns="http://www.w3.org/2000/svg" xmlns:xlink="http://www.w3.org/1999/xlink" x="0px" y="0px"
	 viewBox="0 0 1600 1100" enable-background="new 0 0 1600 1100" xml:space="preserve">
<rect id="XMLID_452_" x="-5.493" y="-8.665" display="none" fill="#FF6432" width="1610.985" height="1117.329"/>
<g>
	<g id="XMLID_456_" display="none">
		<defs>
			<rect id="XMLID_453_" x="81.108" y="38.489" width="1690.841" height="1061.511"/>
		</defs>
		<clipPath id="XMLID_474_" display="inline">
			<use xlink:href="#XMLID_453_"  overflow="visible"/>
		</clipPath>
		<linearGradient id="XMLID_475_" gradientUnits="userSpaceOnUse" x1="1990.7516" y1="1509.5469" x2="971.5356" y2="630.2239">
			<stop  offset="0.0267" style="stop-color:#FFFFFF"/>
			<stop  offset="0.3938" style="stop-color:#FFFFFF"/>
			<stop  offset="1" style="stop-color:#000000"/>
		</linearGradient>
		<path id="XMLID_385_" display="inline" opacity="0.54" clip-path="url(#XMLID_474_)" fill="url(#XMLID_475_)" d="
			M2199.217,1191.459c10.922-4.234,18.671-14.836,18.671-27.255c0-8.689-3.802-16.479-9.822-21.831
			c-0.745-0.833-1.532-1.625-2.367-2.367c-0.745-0.833-1.532-1.625-2.367-2.367c-0.745-0.832-1.532-1.625-2.367-2.367
			c-0.559-0.624-1.138-1.227-1.748-1.801v-36.933h12.862v-64.91h-2.367v-2.367h-2.367v-2.367h-2.367v-2.367h-2.367v-2.367h-2.367
			v-2.367h-2.367v-2.367h-2.367v-2.367h-2.367v-2.367h-2.367v-2.367h-2.367v-2.367h-2.367v-2.367h-2.367v-2.367h-2.367v-2.367
			h-2.367v-2.367h-2.367v-2.367h-2.367v-2.367h-2.367v-2.367h-2.367v-2.367h-2.367v-2.367h-2.367v-2.367h-2.367v-2.367H2160v-2.367
			h-2.367v-2.367h-2.367v-2.367h-2.367v-2.367h-2.367v-2.367h-2.367v-2.367h-2.367v-2.367h-2.367v-2.367h-2.367v-2.367h-2.367
			v-2.367h-2.367v-2.367h-2.367v-2.367h-2.367v-2.367h-2.367v-2.367h-2.367v-2.367h-2.367v-2.367h-2.367v-2.367h-2.367v-2.367
			h-2.367v-2.367h-2.367v-2.367h-2.367v-2.367h-2.367v-2.367h-2.367v-2.367h-2.367v-2.367h-2.367v-2.367h-2.367v-2.367h-2.367V918
			h-2.367v-2.367h-2.367v-2.367h-2.367v-2.367h-2.367v-2.367h-2.367v-2.367h-2.367v-2.367h-2.367v-2.367h-2.367v-2.367h-2.367
			v-2.367h-2.367v-2.367h-2.367v-2.367h-2.367v-2.367h-2.367v-2.367h-2.367v-2.367h-2.367v-2.367h-2.367v-2.367h-2.367v-2.367
			h-2.367v-2.367h-2.367v-2.367h-2.367v-2.367h-2.367v-2.367h-2.367v-2.367h-2.367v-2.367h-2.367v-2.367h-2.367v-2.367h-2.367
			v-2.367h-2.367v-2.367h-2.367v-2.367h-2.367v-2.367h-2.367v-2.367h-2.367v-2.367h-2.367v-2.367h-2.367v-2.367h-2.367v-2.367
			h-2.367v-2.367h-2.367v-2.367h-2.367v-2.367h-2.367v-2.367h-2.367v-2.367h-2.367v-2.367h-2.367v-2.367h-2.367v-2.367h-2.367
			v-2.367h-2.367v-2.367h-2.367v-2.367h-2.367v-2.367h-2.367v-2.367h-2.367v-2.367h-2.367v-2.367h-2.367v-2.367h-2.367v-2.367
			h-2.367v-2.367h-2.367v-2.367h-2.367v-2.367h-2.367v-2.367h-2.367v-2.367h-2.367v-2.367h-2.367v-2.367h-2.367v-2.367h-2.367
			v-2.367h-2.367v-2.367h-2.367v-2.367h-2.367v-2.367h-2.367v-2.367h-2.367v-2.367h-2.367v-2.367h-2.367v-2.367h-2.367v-2.367
			h-2.367v-2.367h-2.367v-2.367h-2.367v-2.367h-2.367v-2.367h-2.367v-2.367h-2.367v-2.367h-2.367v-2.367h-2.367v-2.367h-2.367
			v-2.367h-2.367v-2.367h-2.367v-2.367h-2.367v-2.367h-2.367v-2.367h-2.367v-2.367h-2.367v-2.367h-2.367v-2.367h-2.367v-2.367
			h-2.367v-2.367h-2.367v-2.367h-2.367v-2.367h-2.367v-2.367h-2.367v-2.367h-2.367v-2.367h-2.367v-2.367h-2.367v-2.367h-2.367
			v-2.367h-2.367v-2.367h-2.367v-2.367h-2.367v-2.367h-2.367v-2.367h-2.367v-2.367h-2.367v-2.367h-2.367v-2.367h-2.367v-2.367
			h-2.367v-2.367h-2.367v-2.367h-2.367v-2.367h-2.367v-2.367h-2.367v-2.367h-2.367v-2.367h-2.367v-2.367h-2.367v-2.367h-2.367
			v-2.367h-2.367v-2.367h-2.367V650.5h-2.367v-2.367h-2.367v-2.367h-2.367v-2.367h-2.367v-2.367h-2.367v-2.367h-2.367v-2.367h-2.367
			v-2.367h-2.367v-2.367h-2.367v-2.367h-2.367v-2.367h-2.367v-2.367h-2.367v-2.367h-2.367v-2.367h-2.367v-2.367h-2.367v-2.367
			h-2.367v-2.367h-2.367v-2.367h-2.367v-2.367h-2.367v-2.367h-2.367v-2.367h-2.367v-2.367h-2.367v-2.367h-2.367v-2.367h-2.367
			v-2.367h-2.367v-2.367h-2.367v-2.367h-2.367v-2.367h-2.367v-2.367h-2.367v-2.367h-2.367v-2.367h-2.367v-2.367h-2.367v-2.367
			h-2.367v-2.367h-2.367v-2.367h-2.367v-2.367h-2.367v-2.367h-2.367v-2.367h-2.367v-2.367h-2.367v-2.367h-2.367v-2.367h-2.367
			v-2.367h-2.367v-2.367h-2.367v-2.367h-2.367v-2.367h-2.367v-2.367h-2.367v-2.367h-2.367v-2.367h-2.367v-2.367h-2.367v-2.367
			h-2.367v-2.367h-2.367v-2.367h-2.367v-2.367h-2.367v-2.367h-2.367v-2.367h-2.367v-2.367h-2.367v-2.367h-2.367v-2.367h-2.367
			v-2.367h-2.367v-2.367h-2.367v-2.367h-2.367v-2.367h-2.367v-2.367h-2.367v-2.367h-2.367v-2.367h-2.367v-2.367h-2.367v-2.367
			h-2.367v-2.367h-2.367v-2.367h-2.367v-2.367h-2.367v-2.367h-2.367v-2.367h-2.367v-2.367h-2.367v-2.367h-2.367v-2.367h-2.367
			v-2.367h-2.367v-2.367h-2.367v-2.367h-2.367v-2.367h-2.367v-2.367h-2.367v-2.367h-2.367v-2.367h-2.367v-2.367h-2.367v-2.367
			h-2.367v-2.367h-2.367v-2.367h-2.367v-2.367H1625v-2.367h-2.367v-2.367h-2.367v-2.367h-2.367v-2.367h-2.367v-2.367h-2.367v-2.367
			h-2.367v-2.367h-2.367v-2.367h-2.367v-2.367h-2.367v-2.367h-2.367v-2.367h-2.367v-2.367h-2.367v-2.367h-2.367v-2.367h-2.367
			v-2.367h-2.367v-2.367h-2.367v-2.367h-2.367v-2.367h-2.367v-2.367h-2.367v-2.367h-2.367v-2.367h-2.367v-2.367h-2.367v-2.367
			h-2.367v-2.367h-2.367v-2.367h-2.367v-2.367h-2.367V383h-2.367v-2.367h-2.367v-2.367h-2.367v-2.367h-2.367v-2.367h-2.367v-2.367
			h-2.367v-2.367h-2.367v-2.367h-2.367v-2.367h-2.367v-2.367h-2.367v-2.367h-2.367v-2.367h-2.367v-2.367h-2.367v-2.367h-2.367
			v-2.367h-2.367v-2.367h-2.367v-2.367h-2.367v-2.367h-2.367v-2.367h-2.367v-2.367h-2.367v-2.367h-2.367v-2.367h-2.367v-2.367
			h-2.367v-2.367h-2.367v-2.367h-2.367v-2.367h-2.367v-2.367h-2.367v-2.367h-2.367v-2.367h-2.367v-2.367h-2.367v-2.367h-2.367
			v-2.367h-2.367v-2.367h-2.367v-2.367h-2.367v-2.367h-2.367v-2.367h-2.367v-2.367h-2.367v-2.367h-2.367v-2.367h-2.367v-2.367
			h-2.367v-2.367h-2.367v-2.367h-2.367v-2.367h-2.367v-2.367h-2.367v-2.367h-2.367v-2.367h-2.367v-2.367h-2.367v-2.367h-2.367
			v-2.367h-2.367v-2.367h-2.367v-2.367h-2.367v-2.367h-2.367v-2.367h-2.367v-2.367h-2.367v-2.367h-2.367v-2.367h-2.367v-2.367
			h-2.367v-2.367h-2.367v-2.367h-2.367v-2.367h-2.367v-2.367h-2.367v-2.367h-2.367v-2.367h-2.367v-2.367h-2.367v-2.367h-2.367
			v-2.367h-2.367v-2.367h-2.367v-2.367h-2.367v-2.367h-2.367v-2.367h-2.367v-2.367h-2.367v-2.367h-2.367v-2.367h-2.367v-2.367
			h-2.367v-2.367h-2.367v-2.367h-2.367v-2.367h-2.367v-2.367h-2.367v-2.367h-2.367v-2.367h-2.367v-2.367h-2.367v-2.367h-2.367
			v-2.367h-2.367v-2.367h-2.367v-2.367h-2.367v-2.367h-2.367v-2.367h-2.367v-2.367h-2.367v-2.367h-2.367v-2.367h-2.367v-2.367
			h-2.367v-2.367h-2.367v-2.367h-2.367v-2.367h-2.367v-2.367h-2.367v-2.367h-2.367v-2.367h-2.367v-2.367h-2.367v-2.367h-2.367
			v-2.367h-2.367v-2.367h-2.367v-2.367h-2.367v-2.367h-2.367v-2.367h-2.367v-2.367h-2.367v-2.367h-2.367v-2.367h-2.367v-2.367
			h-2.367v-2.367h-2.367v-2.367h-2.367v-2.367h-2.367v-2.367h-2.367v-2.367h-2.367V115.5h-2.367v-2.367h-2.367v-2.367h-2.367v-2.367
			h-2.367v-2.367h-2.367v-2.367h-2.367v-2.367h-2.367v-2.367h-2.367v-2.367h-2.367v-2.367h-2.367v-2.367h-2.367V89.46h-2.367v-2.367
			h-2.367v-2.367h-2.367v-2.367h-46.841v64.91h2.367v2.367h2.367v2.367h2.367v2.367h2.367v2.367h2.367v2.367h2.367v2.367h2.367
			v2.367h1.239v22.41c-13.457,2.617-23.618,14.462-23.618,28.685c0,8.665,3.776,16.443,9.766,21.794
			c0.743,0.834,1.534,1.623,2.367,2.367c0.743,0.834,1.534,1.623,2.367,2.367c0.743,0.834,1.534,1.623,2.367,2.367
			c0.743,0.834,1.534,1.623,2.367,2.367c0.743,0.834,1.534,1.623,2.367,2.367c0.639,0.717,1.31,1.403,2.016,2.053v69.327
			c-0.374-0.373-0.752-0.741-1.127-1.113c-0.787-0.792-1.575-1.582-2.367-2.367c-0.787-0.792-1.575-1.581-2.367-2.367
			c-0.787-0.792-1.575-1.582-2.367-2.367c-0.786-0.791-1.574-1.58-2.365-2.365c-0.788-0.793-1.577-1.583-2.37-2.37
			c-0.787-0.792-1.575-1.581-2.367-2.367c-0.787-0.792-1.575-1.582-2.367-2.367c-0.787-0.792-1.575-1.582-2.367-2.367
			c-0.787-0.792-1.575-1.582-2.367-2.367c-0.787-0.792-1.575-1.582-2.367-2.367c-0.787-0.793-1.577-1.583-2.37-2.37
			c-0.786-0.791-1.574-1.58-2.365-2.365c-0.787-0.792-1.575-1.582-2.367-2.367c-0.787-0.792-1.575-1.582-2.367-2.367
			c-0.787-0.792-1.575-1.582-2.367-2.367c-0.787-0.792-1.575-1.582-2.367-2.367c-0.787-0.792-1.575-1.582-2.367-2.367
			c-0.787-0.792-1.575-1.582-2.367-2.367c-0.787-0.792-1.576-1.582-2.367-2.367c-0.787-0.792-1.575-1.582-2.367-2.367
			c-0.787-0.792-1.576-1.582-2.367-2.367c-0.787-0.792-1.575-1.582-2.367-2.367c-0.787-0.792-1.575-1.582-2.367-2.367
			c-0.787-0.792-1.575-1.582-2.367-2.367c-0.787-0.792-1.575-1.582-2.367-2.367c-0.787-0.792-1.575-1.582-2.367-2.367
			c-0.787-0.792-1.575-1.582-2.367-2.367c-0.787-0.792-1.575-1.582-2.367-2.367c-0.787-0.792-1.575-1.582-2.367-2.367
			c-0.787-0.792-1.575-1.581-2.367-2.367c-0.786-0.791-1.574-1.58-2.365-2.365c-0.788-0.793-1.577-1.583-2.37-2.37
			c-0.787-0.792-1.576-1.582-2.367-2.367c-0.787-0.792-1.575-1.582-2.367-2.367c-0.787-0.792-1.576-1.581-2.367-2.367
			c-0.787-0.792-1.576-1.582-2.367-2.367c-0.787-0.792-1.576-1.582-2.367-2.367c-0.787-0.793-1.577-1.583-2.37-2.37
			c-0.786-0.791-1.574-1.58-2.365-2.365c-0.787-0.792-1.576-1.582-2.367-2.367c-0.787-0.792-1.576-1.582-2.367-2.367
			c-0.787-0.792-1.575-1.582-2.367-2.367c-0.787-0.792-1.575-1.582-2.367-2.367c-0.787-0.792-1.575-1.582-2.367-2.367
			C987.571,72.776,764.857,34.096,580.146,134.221C355.65,255.911,272.309,536.55,393.999,761.046
			c22.125,40.816,49.509,76.961,80.849,108.061c0.787,0.792,1.576,1.582,2.367,2.367c0.787,0.792,1.576,1.581,2.367,2.367
			c0.787,0.792,1.576,1.582,2.367,2.367c0.787,0.792,1.576,1.582,2.367,2.367c0.787,0.792,1.576,1.582,2.367,2.367
			c0.788,0.793,1.577,1.583,2.37,2.37c0.786,0.791,1.574,1.58,2.365,2.365c0.787,0.792,1.576,1.581,2.367,2.367
			c0.787,0.792,1.576,1.582,2.367,2.367c0.787,0.792,1.575,1.582,2.367,2.367c0.787,0.792,1.576,1.582,2.367,2.367
			c0.787,0.792,1.575,1.582,2.367,2.367c0.786,0.791,1.574,1.58,2.365,2.365c0.787,0.793,1.577,1.583,2.37,2.37
			c0.787,0.792,1.576,1.582,2.367,2.367c0.787,0.792,1.575,1.582,2.367,2.367c0.787,0.792,1.575,1.582,2.367,2.367
			c0.787,0.792,1.576,1.582,2.367,2.367c0.787,0.792,1.576,1.582,2.367,2.367c0.787,0.792,1.575,1.582,2.367,2.367
			c0.787,0.792,1.575,1.582,2.367,2.367c0.787,0.792,1.575,1.582,2.367,2.367c0.787,0.792,1.575,1.582,2.367,2.367
			c0.787,0.792,1.575,1.582,2.367,2.367c0.787,0.792,1.575,1.582,2.367,2.367c0.787,0.792,1.575,1.582,2.367,2.367
			c0.787,0.792,1.575,1.582,2.367,2.367c0.787,0.792,1.575,1.582,2.367,2.367c0.787,0.792,1.575,1.582,2.367,2.367
			c0.787,0.792,1.575,1.582,2.367,2.367c0.787,0.792,1.575,1.582,2.367,2.367c0.787,0.792,1.575,1.582,2.367,2.367
			c0.788,0.793,1.577,1.583,2.37,2.37c0.786,0.791,1.574,1.58,2.365,2.365c0.787,0.792,1.575,1.582,2.367,2.367
			c0.787,0.792,1.575,1.582,2.367,2.367c0.787,0.792,1.576,1.581,2.367,2.367c0.787,0.792,1.575,1.582,2.367,2.367
			c0.787,0.792,1.575,1.581,2.367,2.367c0.786,0.791,1.574,1.58,2.365,2.365c0.787,0.793,1.577,1.583,2.37,2.37
			c0.787,0.792,1.575,1.582,2.367,2.367c0.787,0.792,1.575,1.581,2.367,2.367c0.787,0.792,1.575,1.582,2.367,2.367
			c0.787,0.792,1.575,1.581,2.367,2.367c0.787,0.792,1.575,1.581,2.367,2.367c0.787,0.792,1.575,1.582,2.367,2.367
			c0.787,0.792,1.576,1.581,2.367,2.367c0.787,0.792,1.575,1.582,2.367,2.367c0.787,0.792,1.575,1.581,2.367,2.367
			c0.787,0.792,1.575,1.582,2.367,2.367c0.787,0.792,1.575,1.582,2.367,2.367c0.787,0.792,1.575,1.581,2.367,2.367
			c0.787,0.792,1.575,1.582,2.367,2.367c0.787,0.792,1.575,1.581,2.367,2.367c0.787,0.792,1.575,1.582,2.367,2.367
			c0.787,0.792,1.575,1.582,2.367,2.367c0.787,0.792,1.576,1.582,2.367,2.367c0.787,0.792,1.575,1.582,2.367,2.367
			c0.788,0.793,1.577,1.583,2.37,2.37c0.786,0.791,1.574,1.58,2.365,2.365c0.787,0.792,1.576,1.581,2.367,2.367
			c0.787,0.792,1.576,1.582,2.367,2.367c0.787,0.792,1.576,1.581,2.367,2.367c0.787,0.792,1.576,1.582,2.367,2.367
			c0.786,0.791,1.574,1.58,2.365,2.365c0.788,0.793,1.577,1.583,2.37,2.37c0.787,0.792,1.576,1.582,2.367,2.367
			c0.787,0.792,1.576,1.582,2.367,2.367c0.787,0.792,1.575,1.582,2.367,2.367c0.787,0.792,1.576,1.582,2.367,2.367
			c0.787,0.792,1.576,1.582,2.367,2.367c0.787,0.792,1.576,1.582,2.367,2.367c0.787,0.792,1.576,1.582,2.367,2.367
			c0.787,0.792,1.576,1.582,2.367,2.367c0.787,0.792,1.576,1.582,2.367,2.367c0.787,0.792,1.576,1.582,2.367,2.367
			c0.787,0.792,1.576,1.582,2.367,2.367c0.787,0.792,1.576,1.582,2.367,2.367c0.787,0.792,1.576,1.582,2.367,2.367
			c0.787,0.792,1.576,1.582,2.367,2.367c0.787,0.792,1.576,1.582,2.367,2.367c0.787,0.792,1.576,1.582,2.367,2.367
			c0.787,0.792,1.576,1.582,2.367,2.367c0.787,0.792,1.576,1.582,2.367,2.367c0.788,0.793,1.577,1.583,2.37,2.37
			c0.786,0.791,1.574,1.58,2.365,2.365c0.787,0.792,1.576,1.582,2.367,2.367c0.787,0.792,1.576,1.582,2.367,2.367
			c0.787,0.792,1.576,1.582,2.367,2.367c0.787,0.792,1.575,1.582,2.367,2.367c0.787,0.792,1.575,1.582,2.367,2.367
			c0.786,0.792,1.574,1.58,2.365,2.365c0.787,0.793,1.577,1.583,2.37,2.37c0.787,0.792,1.576,1.582,2.367,2.367
			c0.787,0.792,1.576,1.582,2.367,2.367c0.787,0.792,1.575,1.582,2.367,2.367c0.787,0.792,1.575,1.582,2.367,2.367
			c0.787,0.792,1.575,1.582,2.367,2.367c0.787,0.792,1.575,1.582,2.367,2.367c0.787,0.792,1.576,1.582,2.367,2.367
			c0.787,0.792,1.575,1.582,2.367,2.367c0.787,0.792,1.575,1.582,2.367,2.367c0.787,0.792,1.576,1.582,2.367,2.367
			c0.787,0.792,1.575,1.582,2.367,2.367c0.787,0.792,1.576,1.582,2.367,2.367c0.787,0.792,1.575,1.582,2.367,2.367
			c0.787,0.792,1.575,1.582,2.367,2.367c0.787,0.792,1.575,1.582,2.367,2.367c0.787,0.792,1.575,1.582,2.367,2.367
			c0.787,0.792,1.575,1.582,2.367,2.367c0.787,0.792,1.575,1.582,2.367,2.367c0.787,0.793,1.577,1.583,2.37,2.37
			c0.786,0.791,1.574,1.58,2.365,2.365c0.787,0.792,1.575,1.582,2.367,2.367c0.787,0.792,1.575,1.582,2.367,2.367
			c0.787,0.792,1.575,1.582,2.367,2.367c0.787,0.792,1.575,1.582,2.367,2.367c0.787,0.792,1.575,1.582,2.367,2.367
			c0.786,0.792,1.574,1.58,2.365,2.365c0.787,0.793,1.577,1.583,2.37,2.37c0.787,0.792,1.575,1.582,2.367,2.367
			c0.787,0.792,1.575,1.582,2.367,2.367c0.787,0.792,1.575,1.582,2.367,2.367c0.787,0.792,1.575,1.582,2.367,2.367
			c0.787,0.792,1.575,1.582,2.367,2.367c0.787,0.792,1.575,1.582,2.367,2.367c0.787,0.792,1.575,1.582,2.367,2.367
			c0.787,0.792,1.575,1.582,2.367,2.367c0.787,0.792,1.576,1.582,2.367,2.367c0.787,0.792,1.575,1.582,2.367,2.367
			c0.787,0.792,1.575,1.582,2.367,2.367c0.787,0.792,1.575,1.582,2.367,2.367c0.787,0.792,1.575,1.582,2.367,2.367
			c0.787,0.792,1.576,1.582,2.367,2.367c0.787,0.792,1.575,1.582,2.367,2.367c0.787,0.792,1.575,1.582,2.367,2.367
			c0.787,0.792,1.575,1.582,2.367,2.367c0.787,0.792,1.575,1.582,2.367,2.367c0.788,0.793,1.577,1.583,2.37,2.37
			c0.786,0.791,1.574,1.58,2.365,2.365c0.787,0.792,1.576,1.582,2.367,2.367c0.787,0.792,1.576,1.582,2.367,2.367
			c0.787,0.792,1.576,1.582,2.367,2.367c0.787,0.792,1.575,1.582,2.367,2.367c0.787,0.792,1.576,1.582,2.367,2.367
			c0.786,0.791,1.574,1.58,2.365,2.365c0.788,0.793,1.577,1.583,2.37,2.37c0.787,0.792,1.576,1.582,2.367,2.367
			c0.787,0.792,1.576,1.582,2.367,2.367c0.787,0.792,1.576,1.582,2.367,2.367c0.787,0.792,1.576,1.582,2.367,2.367
			c0.787,0.792,1.576,1.582,2.367,2.367c0.787,0.792,1.576,1.582,2.367,2.367c0.787,0.792,1.576,1.582,2.367,2.367
			c0.787,0.792,1.576,1.582,2.367,2.367c0.787,0.792,1.576,1.582,2.367,2.367c0.787,0.792,1.576,1.582,2.367,2.367
			c0.787,0.792,1.576,1.581,2.367,2.367c0.787,0.792,1.576,1.582,2.367,2.367c0.787,0.792,1.576,1.582,2.367,2.367
			c0.787,0.792,1.576,1.582,2.367,2.367c0.787,0.792,1.576,1.582,2.367,2.367c0.787,0.792,1.576,1.582,2.367,2.367
			c0.787,0.792,1.576,1.582,2.367,2.367c0.787,0.792,1.576,1.582,2.367,2.367c0.788,0.793,1.577,1.583,2.37,2.37
			c0.786,0.791,1.574,1.58,2.365,2.365c0.787,0.792,1.575,1.582,2.367,2.367c0.787,0.792,1.576,1.582,2.367,2.367
			c0.787,0.792,1.575,1.582,2.367,2.367c0.787,0.792,1.576,1.582,2.367,2.367c0.786,0.791,1.574,1.58,2.365,2.365
			c0.787,0.793,1.577,1.583,2.37,2.37c0.787,0.792,1.576,1.582,2.367,2.367c0.787,0.792,1.576,1.582,2.367,2.367
			c0.787,0.792,1.575,1.582,2.367,2.367c0.787,0.792,1.575,1.582,2.367,2.367c0.787,0.792,1.575,1.582,2.367,2.367
			c0.787,0.792,1.575,1.582,2.367,2.367c0.787,0.792,1.576,1.582,2.367,2.367c0.787,0.792,1.575,1.582,2.367,2.367
			c0.787,0.792,1.575,1.582,2.367,2.367c0.787,0.792,1.575,1.582,2.367,2.367c0.787,0.792,1.575,1.582,2.367,2.367
			c0.787,0.792,1.575,1.582,2.367,2.367c0.787,0.792,1.575,1.582,2.367,2.367c0.787,0.792,1.576,1.582,2.367,2.367
			c0.787,0.792,1.575,1.582,2.367,2.367c0.787,0.792,1.575,1.582,2.367,2.367c0.787,0.792,1.575,1.582,2.367,2.367
			c0.787,0.792,1.575,1.582,2.367,2.367c0.787,0.793,1.577,1.583,2.37,2.37c0.786,0.792,1.574,1.58,2.365,2.365
			c0.787,0.792,1.575,1.582,2.367,2.367c0.787,0.792,1.575,1.582,2.367,2.367c0.787,0.792,1.575,1.582,2.367,2.367
			c0.787,0.792,1.575,1.582,2.367,2.367c0.787,0.792,1.575,1.582,2.367,2.367c0.786,0.791,1.574,1.58,2.365,2.365
			c0.788,0.793,1.577,1.583,2.37,2.37c0.787,0.792,1.575,1.582,2.367,2.367c0.787,0.792,1.575,1.582,2.367,2.367
			c0.787,0.792,1.576,1.582,2.367,2.367c0.787,0.792,1.575,1.582,2.367,2.367c0.787,0.792,1.575,1.582,2.367,2.367
			c0.787,0.792,1.575,1.582,2.367,2.367c0.787,0.792,1.575,1.582,2.367,2.367c0.787,0.792,1.575,1.582,2.367,2.367
			c0.787,0.792,1.575,1.582,2.367,2.367c0.787,0.792,1.575,1.582,2.367,2.367c0.787,0.792,1.575,1.582,2.367,2.367
			c0.787,0.792,1.575,1.582,2.367,2.367c0.787,0.792,1.575,1.582,2.367,2.367c0.787,0.792,1.575,1.582,2.367,2.367
			c0.787,0.792,1.575,1.582,2.367,2.367c0.787,0.792,1.576,1.581,2.367,2.367c0.787,0.792,1.575,1.582,2.367,2.367
			c0.787,0.792,1.575,1.582,2.367,2.367c0.787,0.793,1.577,1.583,2.37,2.37c0.786,0.791,1.574,1.58,2.365,2.365
			c0.787,0.792,1.576,1.582,2.367,2.367c0.787,0.792,1.575,1.582,2.367,2.367c0.787,0.792,1.575,1.582,2.367,2.367
			c0.787,0.792,1.575,1.582,2.367,2.367c0.787,0.792,1.575,1.582,2.367,2.367c0.786,0.791,1.574,1.58,2.365,2.365
			c0.788,0.793,1.577,1.583,2.37,2.37c0.787,0.792,1.575,1.582,2.367,2.367c0.787,0.792,1.575,1.582,2.367,2.367
			c0.787,0.792,1.575,1.582,2.367,2.367c0.787,0.792,1.575,1.582,2.367,2.367c0.787,0.792,1.575,1.582,2.367,2.367
			c0.787,0.792,1.575,1.581,2.367,2.367c0.787,0.792,1.575,1.582,2.367,2.367c0.786,0.792,1.575,1.582,2.367,2.367
			c0.787,0.792,1.575,1.582,2.367,2.367c0.787,0.792,1.575,1.582,2.367,2.367c0.787,0.792,1.575,1.582,2.367,2.367
			c0.787,0.792,1.576,1.582,2.367,2.367c0.787,0.792,1.575,1.582,2.367,2.367c0.787,0.792,1.575,1.582,2.367,2.367
			c0.787,0.792,1.575,1.582,2.367,2.367c0.787,0.792,1.575,1.582,2.367,2.367c0.787,0.792,1.575,1.582,2.367,2.367
			c0.787,0.792,1.575,1.582,2.367,2.367c0.787,0.793,1.577,1.583,2.37,2.37c0.786,0.791,1.574,1.58,2.365,2.365
			c0.787,0.792,1.575,1.582,2.367,2.367c0.787,0.792,1.575,1.582,2.367,2.367c0.787,0.792,1.576,1.582,2.367,2.367
			c0.787,0.792,1.575,1.582,2.367,2.367c0.786,0.791,1.574,1.58,2.365,2.365c0.788,0.793,1.577,1.583,2.37,2.37
			c0.787,0.792,1.575,1.582,2.367,2.367c0.787,0.792,1.575,1.582,2.367,2.367c0.787,0.792,1.575,1.582,2.367,2.367
			c0.787,0.792,1.575,1.582,2.367,2.367c0.787,0.792,1.575,1.582,2.367,2.367c0.787,0.792,1.575,1.582,2.367,2.367
			c0.787,0.792,1.575,1.582,2.367,2.367c0.787,0.792,1.576,1.582,2.367,2.367c0.787,0.792,1.575,1.582,2.367,2.367
			c0.787,0.792,1.575,1.582,2.367,2.367c0.787,0.792,1.575,1.582,2.367,2.367c0.787,0.792,1.575,1.582,2.367,2.367
			c0.787,0.792,1.575,1.582,2.367,2.367c0.787,0.792,1.575,1.582,2.367,2.367c0.787,0.792,1.575,1.582,2.367,2.367
			c0.787,0.792,1.575,1.582,2.367,2.367c0.786,0.792,1.575,1.582,2.367,2.367c0.786,0.792,1.575,1.582,2.367,2.367
			c0.787,0.792,1.575,1.582,2.367,2.367c0.787,0.793,1.577,1.583,2.37,2.37c0.786,0.791,1.574,1.58,2.365,2.365
			c0.787,0.792,1.575,1.582,2.367,2.367c0.787,0.792,1.575,1.582,2.367,2.367c0.787,0.792,1.575,1.582,2.367,2.367
			c0.786,0.792,1.575,1.582,2.367,2.367c0.786,0.791,1.574,1.58,2.365,2.365c0.787,0.793,1.577,1.583,2.37,2.37
			c0.786,0.792,1.575,1.582,2.367,2.367c0.787,0.792,1.575,1.582,2.367,2.367c0.787,0.792,1.575,1.582,2.367,2.367
			c0.787,0.792,1.575,1.582,2.367,2.367c0.786,0.792,1.575,1.582,2.367,2.367c0.787,0.792,1.575,1.582,2.367,2.367
			c0.787,0.792,1.575,1.582,2.367,2.367c0.787,0.792,1.575,1.582,2.367,2.367c0.787,0.792,1.575,1.582,2.367,2.367
			c0.787,0.792,1.575,1.582,2.367,2.367c0.787,0.792,1.576,1.581,2.367,2.367c0.787,0.792,1.575,1.582,2.367,2.367
			c0.787,0.792,1.575,1.582,2.367,2.367c0.787,0.792,1.575,1.582,2.367,2.367c0.787,0.792,1.575,1.581,2.367,2.367
			c0.787,0.792,1.575,1.582,2.367,2.367c0.787,0.792,1.575,1.582,2.367,2.367c0.787,0.792,1.575,1.582,2.367,2.367
			c0.788,0.793,1.577,1.583,2.37,2.37c0.786,0.791,1.574,1.58,2.365,2.365c0.786,0.792,1.575,1.582,2.367,2.367
			c0.787,0.792,1.575,1.581,2.367,2.367c0.787,0.792,1.575,1.581,2.367,2.367c0.787,0.792,1.575,1.582,2.367,2.367
			c0.787,0.792,1.575,1.582,2.367,2.367c0.786,0.791,1.574,1.58,2.365,2.365c0.788,0.793,1.577,1.583,2.37,2.37
			c0.787,0.792,1.575,1.582,2.367,2.367c0.787,0.792,1.575,1.582,2.367,2.367c0.787,0.792,1.575,1.582,2.367,2.367
			c0.787,0.792,1.575,1.582,2.367,2.367c0.787,0.792,1.575,1.582,2.367,2.367c0.787,0.792,1.575,1.582,2.367,2.367
			c0.787,0.792,1.575,1.581,2.367,2.367c0.787,0.792,1.575,1.582,2.367,2.367c0.787,0.792,1.575,1.582,2.367,2.367
			c0.787,0.792,1.575,1.582,2.367,2.367c0.787,0.792,1.575,1.581,2.367,2.367c0.787,0.792,1.575,1.582,2.367,2.367
			c0.787,0.792,1.575,1.582,2.367,2.367c0.787,0.792,1.575,1.582,2.367,2.367c0.787,0.792,1.575,1.582,2.367,2.367
			c0.787,0.792,1.575,1.581,2.367,2.367c0.787,0.792,1.575,1.582,2.367,2.367c0.787,0.792,1.575,1.581,2.367,2.367
			c0.788,0.793,1.577,1.583,2.37,2.37c0.786,0.791,1.574,1.58,2.365,2.365c0.787,0.792,1.575,1.582,2.367,2.367
			c0.787,0.792,1.575,1.582,2.367,2.367c0.787,0.792,1.575,1.582,2.367,2.367c0.787,0.792,1.575,1.582,2.367,2.367
			c0.787,0.792,1.575,1.582,2.367,2.367c0.786,0.791,1.574,1.58,2.365,2.365c0.788,0.793,1.577,1.583,2.37,2.37
			c0.787,0.792,1.575,1.582,2.367,2.367c0.787,0.792,1.575,1.582,2.367,2.367c0.787,0.792,1.576,1.582,2.367,2.367
			c0.787,0.792,1.576,1.582,2.367,2.367c0.787,0.792,1.575,1.582,2.367,2.367c0.787,0.792,1.575,1.582,2.367,2.367
			c0.787,0.792,1.575,1.582,2.367,2.367c0.787,0.792,1.575,1.582,2.367,2.367c0.787,0.792,1.575,1.582,2.367,2.367
			c0.787,0.792,1.575,1.582,2.367,2.367c0.787,0.792,1.576,1.582,2.367,2.367c0.787,0.792,1.575,1.582,2.367,2.367
			c0.787,0.792,1.575,1.582,2.367,2.367c0.787,0.792,1.576,1.582,2.367,2.367c0.787,0.792,1.576,1.581,2.367,2.367
			c0.787,0.792,1.575,1.582,2.367,2.367c0.787,0.792,1.575,1.582,2.367,2.367c0.787,0.792,1.575,1.582,2.367,2.367
			c0.788,0.793,1.577,1.583,2.37,2.37c0.786,0.791,1.574,1.58,2.365,2.365c0.787,0.792,1.575,1.582,2.367,2.367
			c0.787,0.792,1.575,1.582,2.367,2.367c0.787,0.792,1.575,1.582,2.367,2.367c0.787,0.792,1.575,1.582,2.367,2.367
			c0.786,0.791,1.574,1.58,2.365,2.365c0.788,0.793,1.577,1.583,2.37,2.37c0.787,0.792,1.575,1.582,2.367,2.367
			c0.787,0.792,1.575,1.582,2.367,2.367c0.787,0.792,1.575,1.582,2.367,2.367c0.787,0.792,1.575,1.582,2.367,2.367
			c0.787,0.792,1.575,1.582,2.367,2.367c0.787,0.792,1.575,1.582,2.367,2.367c0.787,0.792,1.575,1.582,2.367,2.367
			c0.787,0.792,1.575,1.582,2.367,2.367c0.787,0.792,1.575,1.582,2.367,2.367c0.787,0.792,1.575,1.582,2.367,2.367
			c0.787,0.792,1.575,1.581,2.367,2.367c0.787,0.792,1.575,1.581,2.367,2.367c0.787,0.792,1.575,1.582,2.367,2.367
			c0.787,0.792,1.575,1.582,2.367,2.367c0.787,0.792,1.575,1.582,2.367,2.367c0.787,0.792,1.575,1.581,2.367,2.367
			c0.787,0.792,1.575,1.582,2.367,2.367c0.786,0.792,1.575,1.582,2.367,2.367c0.787,0.793,1.577,1.583,2.37,2.37
			c0.786,0.791,1.574,1.58,2.365,2.365c0.787,0.792,1.575,1.582,2.367,2.367c0.786,0.792,1.575,1.582,2.367,2.367
			c0.787,0.792,1.575,1.581,2.367,2.367c0.787,0.792,1.575,1.582,2.367,2.367c0.787,0.792,1.575,1.582,2.367,2.367
			c0.786,0.791,1.574,1.58,2.365,2.365c0.788,0.793,1.577,1.583,2.37,2.37c0.787,0.792,1.575,1.582,2.367,2.367
			c0.786,0.792,1.575,1.582,2.367,2.367c0.787,0.792,1.575,1.581,2.367,2.367c0.787,0.792,1.575,1.581,2.367,2.367
			c0.787,0.792,1.575,1.581,2.367,2.367c0.787,0.792,1.575,1.582,2.367,2.367c0.787,0.792,1.575,1.581,2.367,2.367
			c0.787,0.792,1.575,1.581,2.367,2.367c0.787,0.792,1.575,1.582,2.367,2.367c0.786,0.792,1.575,1.582,2.367,2.367
			c0.786,0.792,1.575,1.582,2.367,2.367c0.787,0.792,1.575,1.581,2.367,2.367c140.921,141.896,363.634,180.576,548.345,80.452
			c188.503-102.181,277.476-316.426,229.121-515.403V1191.459z"/>
	</g>
	<g id="XMLID_383_">
		<path fill="#002A28" d="M1206.973,320.366C1085.281,95.87,804.641,12.53,580.146,134.221
			C355.65,255.911,272.309,536.55,393.999,761.046c121.693,224.496,402.331,307.836,626.827,186.146
			C1245.323,825.5,1328.663,544.862,1206.973,320.366z M892.315,710.115c-93.561,50.716-210.521,15.982-261.238-77.58
			c-50.715-93.56-15.982-210.52,77.577-261.238c93.562-50.715,210.523-15.981,261.24,77.58
			C1020.611,542.437,985.876,659.398,892.315,710.115z"/>
		<path id="XMLID_386_" fill="#1A1010" d="M809.066,556.533c-8.739,4.74-19.669,1.492-24.409-7.25
			c-4.737-8.738-1.488-19.666,7.252-24.406c8.737-4.74,19.668-1.487,24.404,7.249C821.051,540.864,817.805,551.794,809.066,556.533"
			/>
		<path id="XMLID_387_" fill="#E8D8C8" d="M804.609,548.313c-4.199,2.276-9.452,0.717-11.729-3.483
			c-2.279-4.201-0.717-9.452,3.484-11.729c4.2-2.28,9.45-0.717,11.727,3.483C810.369,540.782,808.809,546.035,804.609,548.313"/>
		<path id="XMLID_438_" fill="none" stroke="#002A28" stroke-width="9" stroke-miterlimit="10" d="M883.964,694.706
			c-85.052,46.104-191.376,14.53-237.479-70.523c-46.103-85.052-14.528-191.374,70.522-237.478
			c85.052-46.102,191.375-14.529,237.478,70.523C1000.59,542.28,969.015,648.603,883.964,694.706"/>
		<path id="XMLID_388_" fill="none" d="M843.227,979.866c-56.768,5.498-113.398,0.017-168.317-16.292
			c-54.918-16.309-105.362-42.626-149.929-78.22c-46.142-36.85-83.927-82.08-112.304-134.432
			c-22.878-42.208-38.53-87.017-46.726-133.594l-16.86,2.971c8.318,47.395,24.295,94.248,48.457,138.825
			c96.274,177.606,293.701,266.122,482.532,232.979l-2.973-16.859C865.911,977.21,854.618,978.762,843.227,979.866z"/>
		<path id="XMLID_389_" fill="none" d="M875.575,966.557l-2.706-15.347c-62.889,11.151-127.978,7.605-190.989-11.108
			c-106.682-31.679-194.642-103.01-247.677-200.849c-21.711-40.049-36.493-82.578-44.222-126.165l-15.345,2.705
			c7.849,44.71,22.919,88.914,45.715,130.968C511.177,914.315,697.43,997.827,875.575,966.557z"/>
		<path id="XMLID_390_" fill="none" d="M688.458,917.948C587.694,888.024,504.613,820.654,454.52,728.24
			c-20.506-37.827-34.467-77.999-41.766-119.167l-13.993,2.469c7.403,42.178,21.611,83.879,43.117,123.552
			c85.68,158.064,261.386,236.837,429.445,207.337l-2.468-13.992C809.452,938.973,747.976,935.623,688.458,917.948z"/>
		<path id="XMLID_391_" fill="none" d="M700.532,877.294c-89.907-26.7-164.035-86.812-208.73-169.263
			c-18.295-33.752-30.751-69.594-37.266-106.324l-11.531,2.033c6.586,37.534,19.231,74.643,38.368,109.945
			c76.247,140.656,232.598,210.753,382.146,184.501l-2.034-11.529C808.486,896.054,753.634,893.065,700.532,877.294z"/>
		<path id="XMLID_392_" fill="none" d="M867.307,919.671l-2.243-12.727c-56.109,9.95-114.178,6.784-170.395-9.91
			c-95.178-28.264-173.653-91.903-220.968-179.19c-19.371-35.731-32.559-73.676-39.453-112.561l-12.728,2.244
			c6.986,39.79,20.388,79.129,40.675,116.554C543.022,873.192,708.771,947.499,867.307,919.671z"/>
		<g id="XMLID_393_" display="none">
			<path id="XMLID_394_" display="inline" fill="#F4F1E5" d="M561.381,670.315c-14.339-26.453-23.812-54.255-28.748-82.38
				l-6.952,1.227c5.175,29.177,15.07,57.648,29.602,84.459c35.503,65.494,94.387,113.245,165.804,134.454
				c42.182,12.528,85.753,14.902,127.854,7.437l-1.225-6.952C735.662,828.228,618.508,775.707,561.381,670.315z"/>
			<path id="XMLID_395_" display="inline" fill="#F4F1E5" d="M546.999,678.111c-15.202-28.042-25.246-57.519-30.478-87.334
				l-6.957,1.227c5.477,30.888,15.952,61.03,31.34,89.413c37.584,69.336,99.921,119.888,175.526,142.34
				c44.656,13.261,90.784,15.775,135.353,7.872l-1.227-6.959C731.763,845.522,607.566,789.841,546.999,678.111z"/>
			<path id="XMLID_396_" display="inline" fill="#F4F1E5" d="M531.764,686.37c-16.115-29.728-26.76-60.977-32.31-92.585
				l-6.964,1.228c5.798,32.702,16.888,64.612,33.177,94.66c39.792,73.409,105.787,126.925,185.829,150.695
				c47.278,14.04,96.112,16.701,143.297,8.334l-1.228-6.965C727.632,863.842,595.969,804.817,531.764,686.37z"/>
			<path id="XMLID_397_" display="inline" fill="#F4F1E5" d="M515.625,695.119c-17.083-31.515-28.369-64.64-34.25-98.143
				l-6.974,1.229c6.139,34.623,17.882,68.406,35.128,100.219c42.128,77.718,111.999,134.38,196.742,159.544
				c50.053,14.865,101.757,17.681,151.712,8.823l-1.228-6.974C723.257,883.25,583.685,820.677,515.625,695.119z"/>
			<path id="XMLID_398_" display="inline" fill="#F4F1E5" d="M498.525,704.388c-18.107-33.406-30.079-68.519-36.314-104.034
				l-6.899,1.217c6.51,36.999,18.943,72.593,37.117,106.121c22.541,41.586,52.555,77.514,89.208,106.786
				c35.402,28.274,75.472,49.179,119.096,62.134c43.625,12.955,88.61,17.309,133.703,12.942c9.048-0.877,18.019-2.11,26.912-3.672
				l-1.217-6.899C718.623,903.82,570.673,837.482,498.525,704.388z"/>
			<path id="XMLID_399_" display="inline" fill="#F4F1E5" d="M480.411,714.206c-19.193-35.409-31.884-72.628-38.492-110.276
				l-6.909,1.22c6.892,39.175,20.062,76.86,39.305,112.361c23.866,44.031,55.646,82.072,94.454,113.065
				c37.481,29.936,79.908,52.07,126.099,65.786c46.191,13.717,93.821,18.328,141.566,13.702c9.579-0.928,19.078-2.227,28.494-3.882
				l-1.218-6.909C713.713,925.6,556.886,855.287,480.411,714.206z"/>
			<path id="XMLID_400_" display="inline" fill="#F4F1E5" d="M440.894,735.629c-21.563-39.783-35.821-81.595-43.244-123.892
				l-6.919,1.221c7.727,43.923,22.491,86.173,44.066,125.977c26.759,49.363,62.39,92.014,105.899,126.764
				c42.022,33.56,89.59,58.375,141.376,73.755c51.789,15.38,105.188,20.548,158.717,15.361c10.74-1.04,21.391-2.495,31.948-4.353
				l-1.219-6.919C702.999,973.122,526.809,894.124,440.894,735.629z"/>
			<path id="XMLID_401_" display="inline" fill="#F4F1E5" d="M419.357,747.303c-22.856-42.164-37.966-86.481-45.834-131.311
				l-6.926,1.221c8.184,46.511,23.818,91.25,46.663,133.395c28.336,52.274,66.065,97.435,112.135,134.231
				c44.499,35.539,94.866,61.814,149.704,78.099c54.837,16.284,111.383,21.756,168.065,16.268
				c11.371-1.102,22.651-2.645,33.829-4.61l-1.221-6.924C697.159,999.022,510.418,915.294,419.357,747.303z"/>
			<g id="XMLID_402_" display="inline">
				<path id="XMLID_403_" fill="none" d="M744.219,221.594l1.96,11.115c47.185-8.366,96.019-5.705,143.295,8.333
					c80.043,23.771,146.039,77.29,185.831,150.696c16.287,30.05,27.377,61.96,33.176,94.661l11.117-1.962
					c-5.882-33.506-17.169-66.63-34.251-98.144C1017.286,260.734,877.713,198.164,744.219,221.594z"/>
				<path id="XMLID_404_" fill="none" d="M894.7,223.446c84.744,25.165,154.616,81.825,196.744,159.542
					c17.245,31.815,28.988,65.599,35.125,100.221l12.19-2.149c-6.234-35.519-18.205-70.629-36.313-104.035
					c-72.146-133.095-220.097-199.43-361.607-174.591l2.15,12.188C792.944,205.763,844.647,208.581,894.7,223.446z"/>
				<path id="XMLID_405_" fill="none" d="M737.262,182.14l2.361,13.393c8.893-1.564,17.864-2.796,26.911-3.673
					c45.093-4.367,90.077-0.014,133.705,12.941c43.624,12.956,83.695,33.86,119.096,62.134
					c36.652,29.274,66.667,65.201,89.21,106.786c18.171,33.529,30.606,69.121,37.115,106.122l13.393-2.362
					c-6.609-37.648-19.297-74.865-38.493-110.274C1044.085,226.127,887.258,155.811,737.262,182.14z"/>
				<path id="XMLID_406_" fill="none" d="M764.535,171.348c47.746-4.626,95.377-0.014,141.569,13.701
					c46.19,13.717,88.615,35.853,126.097,65.787c38.809,30.994,70.587,69.034,94.456,113.067
					c19.243,35.499,32.411,73.182,39.303,112.362l37.364-6.59c-7.424-42.296-21.682-84.109-43.245-123.891
					c-85.916-158.498-262.105-237.495-430.623-207.916l6.588,37.364C745.459,173.575,754.958,172.276,764.535,171.348z"/>
				<path id="XMLID_407_" fill="none" d="M884.541,257.656c75.605,22.454,137.944,73.002,175.528,142.341
					c15.385,28.382,25.861,58.524,31.338,89.412l10.11-1.783c-5.548-31.607-16.194-62.856-32.31-92.585
					c-64.204-118.444-195.867-177.47-321.801-155.367l1.783,10.111C793.757,241.882,839.883,244.395,884.541,257.656z"/>
				<path id="XMLID_408_" fill="none" d="M750.415,256.742l1.615,9.159c42.101-7.465,85.672-5.091,127.855,7.436
					c71.415,21.208,130.3,68.957,165.802,134.454c14.534,26.811,24.43,55.282,29.603,84.46l9.158-1.615
					c-5.233-29.816-15.276-59.292-30.477-87.334C993.407,291.571,869.209,235.891,750.415,256.742z"/>
				<path id="XMLID_409_" fill="none" d="M725.202,113.742l3.034,17.209c10.555-1.857,21.207-3.313,31.945-4.353
					c53.531-5.189,106.933-0.021,158.719,15.36c51.789,15.381,99.354,40.195,141.377,73.758
					c43.51,34.748,79.14,77.399,105.899,126.763c21.573,39.801,36.339,82.052,44.067,125.976l17.208-3.036
					c-7.869-44.827-22.98-89.145-45.835-131.307C1090.553,166.12,903.813,82.392,725.202,113.742z"/>
				<path id="XMLID_410_" fill="#F4F1E5" d="M1039.591,411.095c14.339,26.452,23.812,54.257,28.748,82.383l6.952-1.228
					c-5.173-29.177-15.069-57.648-29.603-84.46c-35.502-65.497-94.387-113.246-165.802-134.454
					c-42.183-12.527-85.755-14.901-127.855-7.436l1.227,6.95C865.309,253.184,982.464,305.706,1039.591,411.095z"/>
				<path id="XMLID_411_" fill="#F4F1E5" d="M1053.972,403.301c15.201,28.043,25.244,57.519,30.477,87.334l6.958-1.227
					c-5.477-30.888-15.953-61.03-31.338-89.412c-37.584-69.338-99.923-119.887-175.528-142.341
					c-44.658-13.262-90.784-15.774-135.352-7.872l1.227,6.958C869.209,235.891,993.407,291.571,1053.972,403.301z"/>
				<path id="XMLID_412_" fill="#F4F1E5" d="M1069.207,395.041c16.116,29.729,26.762,60.978,32.31,92.585l6.965-1.227
					c-5.799-32.701-16.889-64.611-33.176-94.661c-39.792-73.406-105.788-126.926-185.831-150.696
					c-47.276-14.038-96.111-16.699-143.295-8.333l1.227,6.964C873.339,217.571,1005.003,276.597,1069.207,395.041z"/>
				<path id="XMLID_413_" fill="#F4F1E5" d="M1085.347,386.293c17.081,31.515,28.368,64.639,34.251,98.144l6.971-1.228
					c-6.138-34.622-17.881-68.406-35.125-100.221c-42.127-77.717-112-134.378-196.744-159.542
					c-50.054-14.865-101.756-17.683-151.712-8.824l1.23,6.972C877.713,198.164,1017.286,260.734,1085.347,386.293z"/>
				<path id="XMLID_414_" fill="#F4F1E5" d="M1102.446,377.025c18.108,33.406,30.08,68.516,36.313,104.035l6.9-1.217
					c-6.51-37.001-18.944-72.593-37.115-106.122c-22.543-41.585-52.558-77.513-89.21-106.786
					c-35.4-28.274-75.471-49.178-119.096-62.134c-43.627-12.955-88.611-17.308-133.705-12.941
					c-9.047,0.877-18.019,2.11-26.911,3.673l1.217,6.901C882.349,177.595,1030.299,243.93,1102.446,377.025z"/>
				<path id="XMLID_415_" fill="#F4F1E5" d="M1120.559,367.206c19.195,35.409,31.884,72.626,38.493,110.274l6.908-1.216
					c-6.892-39.18-20.06-76.863-39.303-112.362c-23.869-44.033-55.647-82.073-94.456-113.067
					c-37.482-29.934-79.908-52.07-126.097-65.787c-46.192-13.715-93.822-18.327-141.569-13.701
					c-9.578,0.928-19.077,2.227-28.492,3.883l1.218,6.908C887.258,155.811,1044.085,226.127,1120.559,367.206z"/>
				<path id="XMLID_416_" fill="#F4F1E5" d="M1160.078,345.783c21.563,39.782,35.821,81.595,43.245,123.891l6.919-1.219
					c-7.728-43.924-22.493-86.175-44.067-125.976c-26.759-49.365-62.39-92.015-105.899-126.763
					c-42.023-33.563-89.588-58.377-141.377-73.758c-51.786-15.381-105.188-20.549-158.719-15.36
					c-10.738,1.04-21.39,2.496-31.945,4.353l1.22,6.917C897.973,108.288,1074.162,187.286,1160.078,345.783z"/>
				<path id="XMLID_417_" fill="#F4F1E5" d="M1181.615,334.112c22.855,42.163,37.966,86.48,45.835,131.307l6.924-1.219
					c-8.182-46.511-23.817-91.249-46.662-133.393c-28.336-52.273-66.064-97.437-112.135-134.232
					c-44.5-35.538-94.867-61.815-149.705-78.101c-54.835-16.283-111.38-21.756-168.064-16.266c-11.37,1.102-22.65,2.644-33.828,4.61
					l1.222,6.925C903.813,82.392,1090.553,166.12,1181.615,334.112z"/>
				<path id="XMLID_418_" fill="#F4F1E5" d="M1139.75,356.804c20.344,37.532,33.795,76.982,40.8,116.886l6.913-1.218
					c-7.298-41.481-21.241-81.383-41.617-118.971c-25.272-46.624-58.92-86.902-100.01-119.719
					c-39.688-31.696-84.61-55.132-133.52-69.656c-48.907-14.524-99.338-19.405-149.894-14.507c-10.141,0.982-20.2,2.355-30.17,4.111
					l1.219,6.913C892.462,132.736,1058.69,207.267,1139.75,356.804z"/>
			</g>
			<path id="XMLID_419_" display="inline" fill="#F4F1E5" d="M867.501,920.771c-158.992,27.906-325.22-46.625-406.279-196.163
				c-20.343-37.53-33.796-76.982-40.8-116.886l-6.913,1.218c7.298,41.482,21.242,81.385,41.618,118.973
				c25.272,46.621,58.919,86.901,100.011,119.719c39.688,31.695,84.61,55.133,133.518,69.656
				c48.908,14.527,99.34,19.404,149.894,14.508c10.142-0.983,20.202-2.359,30.171-4.113L867.501,920.771z"/>
		</g>
		<g id="XMLID_531_">
			<g>
				<path id="XMLID_638_" display="none" fill="#DF9F51" stroke="#E0A051" stroke-miterlimit="10" d="M667.572,295.506
					c-65.496,35.501-113.247,94.381-134.454,165.801c-12.528,42.183-14.902,85.755-7.437,127.855l6.952-1.227
					c-19.669-112.054,32.851-229.208,138.243-286.336c26.451-14.338,54.256-23.812,82.381-28.748l-1.227-6.95
					C722.853,271.075,694.383,280.971,667.572,295.506z"/>
				<path id="XMLID_637_" fill="#DF9F51" stroke="#E0A051" stroke-miterlimit="10" d="M663.08,287.22
					c28.043-15.202,57.518-25.245,87.334-30.478l-1.227-6.958c-30.888,5.477-61.029,15.953-89.412,31.339
					c-69.337,37.585-119.888,99.922-142.341,175.525c-13.262,44.658-15.774,90.784-7.871,135.354l6.957-1.227
					C495.671,471.983,551.35,347.784,663.08,287.22z"/>
				<path id="XMLID_636_" display="none" fill="#DF9F51" stroke="#E0A051" stroke-miterlimit="10" d="M651.517,265.888
					c-73.405,39.792-126.923,105.787-150.693,185.83c-14.04,47.277-16.699,96.11-8.333,143.296l6.964-1.228
					c-22.103-125.935,36.924-257.598,155.368-321.802c29.729-16.116,60.976-26.761,92.583-32.31l-1.227-6.964
					C713.477,238.51,681.567,249.598,651.517,265.888z"/>
				<path id="XMLID_635_" fill="#DF9F51" stroke="#E0A051" stroke-miterlimit="10" d="M646.073,255.845
					c31.514-17.082,64.637-28.37,98.145-34.251l-1.23-6.972c-34.622,6.139-68.407,17.881-100.22,35.127
					c-77.718,42.126-134.378,111.998-159.543,196.742c-14.865,50.052-17.682,101.756-8.825,151.713l6.974-1.229
					C457.942,463.477,520.514,323.906,646.073,255.845z"/>
				<path id="XMLID_634_" display="none" fill="#DF9F51" stroke="#E0A051" stroke-miterlimit="10" d="M526.714,321.858
					c-28.274,35.4-49.18,75.47-62.134,119.096c-12.955,43.624-17.308,88.609-12.941,133.704c0.878,9.047,2.109,18.02,3.674,26.913
					l6.899-1.217c-24.839-141.511,41.497-289.461,174.593-361.607c33.405-18.108,68.517-30.08,104.034-36.313l-1.217-6.901
					c-37.003,6.51-72.594,18.943-106.122,37.116C591.915,255.191,555.986,285.205,526.714,321.858z"/>
				<path id="XMLID_633_" fill="#DF9F51" stroke="#E0A051" stroke-miterlimit="10" d="M626.987,220.632
					c35.409-19.194,72.626-31.885,110.275-38.492l-1.218-6.908c-39.177,6.893-76.862,20.063-112.361,39.304
					c-44.032,23.868-82.074,55.647-113.068,94.456c-29.935,37.48-52.069,79.906-65.784,126.096
					c-13.717,46.192-18.328,93.821-13.702,141.567c0.928,9.58,2.227,19.08,3.883,28.496l6.909-1.22
					C415.592,453.931,485.907,297.107,626.987,220.632z"/>
				<path id="XMLID_632_" fill="#DF9F51" stroke="#E0A051" stroke-miterlimit="10" d="M475.495,280.915
					c-33.563,42.021-58.377,89.59-73.757,141.378c-15.379,51.784-20.546,105.185-15.361,158.718
					c1.04,10.737,2.495,21.389,4.354,31.947l6.919-1.221c-29.58-168.52,49.416-344.708,207.916-430.624
					c39.78-21.564,81.591-35.821,123.889-43.245l-1.22-6.917c-43.924,7.727-86.174,22.491-125.975,44.066
					C552.895,201.775,510.244,237.404,475.495,280.915z"/>
				<path id="XMLID_631_" display="none" fill="#DF9F51" stroke="#E0A051" stroke-miterlimit="10" d="M593.89,159.577
					c42.164-22.854,86.481-37.966,131.311-45.835l-1.222-6.925c-46.511,8.183-91.249,23.819-133.393,46.664
					c-52.273,28.335-97.436,66.062-134.232,112.135c-35.538,44.496-61.815,94.865-78.098,149.702
					c-16.287,54.837-21.759,111.381-16.268,168.065c1.102,11.371,2.644,22.651,4.609,33.828l6.926-1.221
					C342.171,437.379,425.899,250.639,593.89,159.577z"/>
				<path id="XMLID_630_" display="none" fill="#DF9F51" stroke="#E0A051" stroke-miterlimit="10" d="M616.584,201.443
					c37.533-20.345,76.982-33.795,116.886-40.801l-1.219-6.913c-41.482,7.299-81.385,21.242-118.972,41.618
					c-46.621,25.271-86.901,58.919-119.718,100.011c-31.696,39.687-55.132,84.607-69.657,133.515
					c-14.523,48.91-19.406,99.341-14.508,149.897c0.982,10.142,2.357,20.201,4.111,30.17l6.913-1.218
					C392.516,448.729,467.046,282.502,616.584,201.443z"/>
				<path id="XMLID_629_" display="none" fill="#DF9F51" stroke="#E0A051" stroke-miterlimit="10" d="M984.386,879.97
					c-37.531,20.344-76.979,33.795-116.885,40.8l1.219,6.912c41.482-7.297,81.383-21.239,118.973-41.616
					c46.622-25.272,86.9-58.92,119.716-100.01c31.698-39.689,55.135-84.611,69.658-133.519
					c14.524-48.91,19.404-99.34,14.508-149.893c-0.983-10.143-2.358-20.204-4.112-30.173l-6.913,1.218
					C1208.456,632.682,1133.925,798.911,984.386,879.97z"/>
				<path id="XMLID_628_" display="none" fill="#DF9F51" stroke="#E0A051" stroke-miterlimit="10" d="M930.096,779.811
					c-26.452,14.34-54.255,23.813-82.379,28.749l1.225,6.952c29.178-5.174,57.648-15.07,84.459-29.602
					c65.496-35.504,113.246-94.388,134.454-165.802c12.528-42.184,14.901-85.755,7.437-127.857l-6.952,1.228
					C1088.006,605.53,1035.486,722.683,930.096,779.811z"/>
				<path id="XMLID_627_" fill="#DF9F51" stroke="#E0A051" stroke-miterlimit="10" d="M941.196,800.289
					c69.337-37.584,119.887-99.923,142.339-175.527c13.263-44.657,15.775-90.783,7.872-135.353l-6.958,1.227
					c20.852,118.793-34.828,242.992-146.557,303.556c-28.045,15.202-57.519,25.245-87.334,30.477l1.227,6.959
					C882.672,826.151,912.813,815.674,941.196,800.289z"/>
				<path id="XMLID_626_" display="none" fill="#DF9F51" stroke="#E0A051" stroke-miterlimit="10" d="M946.149,809.427
					c-29.728,16.115-60.975,26.761-92.584,32.31l1.228,6.965c32.7-5.797,64.612-16.89,94.66-33.177
					c73.406-39.791,126.923-105.787,150.693-185.831c14.039-47.278,16.702-96.112,8.334-143.296l-6.965,1.227
					C1123.621,613.559,1064.595,745.221,946.149,809.427z"/>
				<path id="XMLID_625_" fill="#DF9F51" stroke="#E0A051" stroke-miterlimit="10" d="M958.204,831.664
					c77.717-42.126,134.377-111.999,159.544-196.743c14.864-50.054,17.68-101.755,8.822-151.712l-6.971,1.228
					c23.43,133.497-39.14,273.069-164.7,341.13c-31.514,17.082-64.638,28.371-98.144,34.25l1.228,6.974
					C892.605,860.651,926.389,848.91,958.204,831.664z"/>
				<path id="XMLID_624_" display="none" fill="#DF9F51" stroke="#E0A051" stroke-miterlimit="10" d="M964.166,842.668
					c-33.404,18.107-68.517,30.079-104.033,36.313l1.217,6.899c37.002-6.511,72.594-18.943,106.122-37.117
					c41.586-22.542,77.514-52.557,106.787-89.21c28.273-35.401,49.176-75.471,62.132-119.096
					c12.957-43.623,17.31-88.609,12.942-133.702c-0.878-9.047-2.109-18.02-3.673-26.912l-6.9,1.217
					C1163.598,622.57,1097.262,770.52,964.166,842.668z"/>
				<path id="XMLID_623_" fill="#DF9F51" stroke="#E0A051" stroke-miterlimit="10" d="M1090.357,772.423
					c29.934-37.482,52.068-79.909,65.785-126.099c13.718-46.19,18.326-93.821,13.701-141.565c-0.928-9.58-2.227-19.079-3.884-28.494
					l-6.908,1.216c26.329,149.999-43.986,306.826-185.066,383.299c-35.409,19.194-72.628,31.886-110.276,38.493l1.218,6.909
					c39.177-6.893,76.862-20.062,112.361-39.304C1021.322,843.01,1059.362,811.232,1090.357,772.423z"/>
				<path id="XMLID_622_" fill="#DF9F51" stroke="#E0A051" stroke-miterlimit="10" d="M995.407,900.298
					c-39.78,21.564-81.594,35.822-123.889,43.245l1.219,6.919c43.924-7.73,86.174-22.492,125.976-44.066
					c49.365-26.759,92.016-62.39,126.765-105.899c33.562-42.023,58.378-89.589,73.756-141.377
					c15.379-51.786,20.548-105.187,15.361-158.717c-1.039-10.739-2.495-21.391-4.352-31.947l-6.919,1.219
					C1232.901,638.192,1153.905,814.382,995.407,900.298z"/>
				<path id="XMLID_621_" display="none" fill="#DF9F51" stroke="#E0A051" stroke-miterlimit="10" d="M1144.617,815.796
					c35.539-44.498,61.814-94.865,78.099-149.704c16.285-54.836,21.758-111.38,16.267-168.066
					c-1.102-11.37-2.643-22.649-4.609-33.827l-6.924,1.219c31.351,178.613-52.377,365.351-220.37,456.418
					c-42.163,22.855-86.481,37.965-131.309,45.835l1.221,6.924c46.509-8.184,91.248-23.818,133.394-46.664
					C1062.658,899.598,1107.821,861.868,1144.617,815.796z"/>
			</g>
		</g>
		<g id="XMLID_378_">
			<g>
				<path id="XMLID_620_" display="none" fill="#8E6A47" d="M1045.683,407.787c-35.503-65.495-94.383-113.245-165.803-134.451
					c-42.184-12.528-85.755-14.901-127.856-7.435l1.227,6.952C865.305,253.183,982.46,305.7,1039.59,411.092
					c14.338,26.45,23.813,54.256,28.749,82.38l6.95-1.227C1070.115,463.068,1060.218,434.599,1045.683,407.787z"/>
				<path id="XMLID_619_" fill="#8E6A47" d="M1053.969,403.296c15.202,28.043,25.246,57.518,30.479,87.334l6.958-1.227
					c-5.478-30.888-15.954-61.029-31.341-89.412c-37.586-69.336-99.924-119.887-175.528-142.337
					c-44.658-13.261-90.785-15.772-135.354-7.868l1.227,6.957C869.203,235.889,993.403,291.566,1053.969,403.296z"/>
				<path id="XMLID_618_" display="none" fill="#8E6A47" d="M1075.301,391.732c-39.793-73.405-105.789-126.921-185.832-150.69
					c-47.277-14.039-96.11-16.697-143.296-8.331l1.228,6.964c125.934-22.106,257.598,36.919,321.805,155.362
					c16.116,29.728,26.762,60.975,32.312,92.582l6.964-1.227C1102.681,453.691,1091.591,421.781,1075.301,391.732z"/>
				<path id="XMLID_617_" fill="#8E6A47" d="M1085.344,386.288c17.083,31.514,28.371,64.637,34.253,98.145l6.972-1.23
					c-6.14-34.622-17.882-68.406-35.129-100.219c-42.128-77.718-112.001-134.376-196.745-159.539
					c-50.052-14.864-101.756-17.68-151.713-8.822l1.229,6.974C877.708,198.161,1017.281,260.73,1085.344,386.288z"/>
				<path id="XMLID_616_" display="none" fill="#8E6A47" d="M1019.329,266.93c-35.401-28.274-75.47-49.178-119.097-62.131
					c-43.624-12.954-88.609-17.306-133.704-12.939c-9.047,0.878-18.02,2.109-26.913,3.675l1.218,6.899
					c141.511-24.841,289.462,41.492,361.61,174.587c18.109,33.405,30.081,68.516,36.315,104.033l6.901-1.217
					c-6.51-37.002-18.944-72.593-37.118-106.122C1085.996,332.13,1055.982,296.201,1019.329,266.93z"/>
				<path id="XMLID_615_" fill="#8E6A47" d="M1120.556,367.201c19.195,35.408,31.886,72.625,38.494,110.274l6.908-1.218
					c-6.893-39.177-20.064-76.862-39.306-112.36c-23.869-44.032-55.648-82.073-94.458-113.066
					c-37.48-29.934-79.907-52.067-126.097-65.782c-46.192-13.717-93.822-18.326-141.567-13.7c-9.58,0.928-19.08,2.227-28.496,3.884
					l1.22,6.909C887.253,155.81,1044.079,226.123,1120.556,367.201z"/>
				<path id="XMLID_614_" fill="#8E6A47" d="M1060.27,215.71c-42.022-33.562-89.591-58.375-141.379-73.754
					c-51.784-15.378-105.185-20.544-158.718-15.358c-10.737,1.04-21.389,2.496-31.947,4.355l1.221,6.919
					c168.52-29.584,344.709,49.41,430.628,207.908c21.565,39.78,35.822,81.591,43.248,123.889l6.917-1.22
					c-7.728-43.924-22.492-86.174-44.068-125.974C1139.411,293.109,1103.782,250.459,1060.27,215.71z"/>
				<path id="XMLID_613_" display="none" fill="#8E6A47" d="M1181.611,334.103c22.854,42.164,37.967,86.48,45.838,131.31
					l6.925-1.223c-8.184-46.51-23.821-91.248-46.666-133.393c-28.336-52.273-66.064-97.435-112.138-134.23
					c-44.497-35.538-94.866-61.813-149.704-78.095c-54.837-16.286-111.382-21.757-168.066-16.265
					c-11.371,1.102-22.651,2.644-33.828,4.61l1.221,6.926C903.805,82.39,1090.546,166.114,1181.611,334.103z"/>
				<path id="XMLID_612_" display="none" fill="#8E6A47" d="M1139.746,356.798c20.346,37.532,33.796,76.981,40.803,116.886
					l6.913-1.219c-7.3-41.482-21.244-81.384-41.62-118.971c-25.272-46.62-58.921-86.9-100.013-119.716
					c-39.688-31.695-84.608-55.131-133.516-69.654c-48.911-14.523-99.341-19.404-149.897-14.505
					c-10.142,0.983-20.201,2.357-30.17,4.111l1.219,6.913C892.455,132.734,1058.683,207.261,1139.746,356.798z"/>
				<path id="XMLID_611_" display="none" fill="#8E6A47" d="M461.225,724.612c-20.345-37.531-33.796-76.979-40.803-116.884
					l-6.912,1.219c7.298,41.482,21.24,81.383,41.619,118.972c25.273,46.621,58.922,86.899,100.012,119.714
					c39.69,31.698,84.612,55.133,133.52,69.656c48.91,14.523,99.341,19.402,149.893,14.505c10.143-0.983,20.204-2.358,30.173-4.113
					l-1.218-6.913C708.517,948.678,542.287,874.15,461.225,724.612z"/>
				<path id="XMLID_610_" display="none" fill="#8E6A47" d="M561.383,670.32c-14.34-26.452-23.814-54.255-28.75-82.379l-6.952,1.225
					c5.175,29.177,15.071,57.648,29.604,84.458c35.505,65.495,94.391,113.244,165.804,134.451
					c42.184,12.527,85.755,14.899,127.857,7.435l-1.228-6.952C735.667,828.228,618.513,775.71,561.383,670.32z"/>
				<path id="XMLID_609_" fill="#8E6A47" d="M540.905,681.421c37.586,69.336,99.925,119.885,175.53,142.336
					c44.657,13.262,90.783,15.774,135.353,7.869l-1.227-6.958c-118.793,20.854-242.993-34.823-303.559-146.552
					c-15.202-28.045-25.246-57.518-30.479-87.334l-6.959,1.227C515.043,622.897,525.52,653.039,540.905,681.421z"/>
				<path id="XMLID_608_" display="none" fill="#8E6A47" d="M531.767,686.374c-16.115-29.727-26.762-60.974-32.312-92.583
					l-6.965,1.229c5.798,32.7,16.891,64.612,33.179,94.659c39.792,73.405,105.789,126.921,185.833,150.69
					c47.279,14.039,96.112,16.7,143.296,8.331l-1.228-6.965C727.639,863.842,595.975,804.819,531.767,686.374z"/>
				<path id="XMLID_607_" fill="#8E6A47" d="M509.531,698.429c42.127,77.717,112.002,134.375,196.746,159.54
					c50.054,14.863,101.755,17.678,151.712,8.819l-1.228-6.971c-133.496,23.432-273.07-39.135-341.133-164.693
					c-17.083-31.513-28.372-64.637-34.252-98.143l-6.974,1.229C480.542,632.831,492.284,666.615,509.531,698.429z"/>
				<path id="XMLID_606_" display="none" fill="#8E6A47" d="M498.526,704.391c-18.107-33.403-30.08-68.517-36.315-104.032
					l-6.899,1.217c6.512,37.001,18.944,72.594,37.119,106.122c22.543,41.585,52.558,77.513,89.212,106.785
					c35.402,28.272,75.472,49.175,119.098,62.13c43.624,12.956,88.61,17.308,133.703,12.939c9.047-0.878,18.019-2.109,26.912-3.674
					l-1.218-6.9C718.629,903.819,570.677,837.486,498.526,704.391z"/>
				<path id="XMLID_605_" fill="#8E6A47" d="M568.774,830.581c37.483,29.933,79.91,52.066,126.101,65.783
					c46.191,13.717,93.821,18.325,141.565,13.699c9.58-0.928,19.079-2.227,28.494-3.884l-1.216-6.908
					c-149.999,26.331-306.827-43.98-383.303-185.058c-19.195-35.408-31.887-72.627-38.495-110.275l-6.909,1.218
					c6.893,39.177,20.063,76.862,39.307,112.36C498.186,761.548,529.965,799.587,568.774,830.581z"/>
				<path id="XMLID_604_" fill="#8E6A47" d="M440.898,735.633c-21.565-39.78-35.823-81.593-43.247-123.889l-6.919,1.219
					c7.731,43.924,22.493,86.173,44.069,125.975c26.76,49.365,62.392,92.015,105.901,126.763
					c42.023,33.562,89.59,58.376,141.379,73.753c51.786,15.378,105.188,20.546,158.717,15.358
					c10.739-1.039,21.391-2.496,31.947-4.353l-1.219-6.919C703.008,973.123,526.816,894.131,440.898,735.633z"/>
				<path id="XMLID_603_" display="none" fill="#8E6A47" d="M525.402,884.842c44.498,35.538,94.866,61.813,149.705,78.096
					c54.836,16.284,111.381,21.756,168.066,16.264c11.37-1.102,22.649-2.644,33.827-4.61l-1.219-6.924
					c-178.612,31.354-365.352-52.37-456.422-220.361c-22.856-42.163-37.967-86.48-45.837-131.308l-6.923,1.221
					c8.185,46.509,23.819,91.247,46.667,133.393C441.599,802.885,479.33,848.047,525.402,884.842z"/>
			</g>
		</g>
		<g>
			<path id="XMLID_480_" fill="#DF9F51" d="M581.872,140.1c44.573-24.16,91.422-40.135,138.815-48.454l-1.292-7.321
				c-49.168,8.65-96.463,25.18-141.016,49.33c-55.26,29.954-103.004,69.837-141.902,118.543
				c-37.569,47.039-65.347,100.285-82.561,158.257c-17.218,57.97-23.002,117.746-17.198,177.669
				c1.165,12.021,2.795,23.945,4.873,35.761l7.322-1.29C315.769,433.776,404.282,236.366,581.872,140.1z"/>
			<path id="XMLID_479_" fill="#DF9F51" d="M1164.069,833.817c37.57-47.041,65.347-100.286,82.562-158.258
				c17.216-57.969,23.001-117.745,17.197-177.67c-1.165-12.02-2.794-23.943-4.872-35.76l-7.319,1.289
				c33.142,188.819-55.37,386.229-232.962,482.499c-44.573,24.161-91.422,40.134-138.812,48.454l1.291,7.319
				c49.167-8.651,96.462-25.179,141.017-49.331C1077.426,922.408,1125.171,882.522,1164.069,833.817z"/>
			<path id="XMLID_478_" fill="#8E6A47" d="M1203.176,324.599c24.16,44.573,40.137,91.422,48.457,138.814l7.321-1.292
				c-8.651-49.168-25.182-96.462-49.333-141.015c-29.955-55.26-69.839-103.003-118.546-141.9
				c-47.04-37.568-100.286-65.346-158.258-82.558c-57.97-17.217-117.746-23-177.669-17.194c-12.021,1.165-23.945,2.796-35.761,4.873
				l1.291,7.322C909.496,58.502,1106.908,147.01,1203.176,324.599z"/>
			<path id="XMLID_477_" fill="#8E6A47" d="M509.47,906.809c47.041,37.569,100.287,65.345,158.26,82.559
				c57.969,17.215,117.745,22.999,177.67,17.193c12.02-1.165,23.943-2.795,35.759-4.873l-1.289-7.319
				c-188.818,33.146-386.23-55.363-482.503-232.953c-24.162-44.572-40.136-91.422-48.457-138.811l-7.319,1.291
				c8.652,49.167,25.181,96.461,49.334,141.016C420.878,820.168,460.765,867.911,509.47,906.809z"/>
		</g>
		<g id="XMLID_439_">
			<g id="XMLID_440_">
				<polygon id="XMLID_441_" fill="#FFB55D" points="1149.906,664.901 1138.266,653.68 1199.406,590.25 1199.406,183.372 
					1215.575,183.372 1215.575,596.774 				"/>
			</g>
			<g id="XMLID_442_">
				<circle id="XMLID_443_" fill="#FFB55D" cx="1205.016" cy="258.255" r="29.229"/>
			</g>
			<g id="XMLID_444_">
				<rect id="XMLID_445_" x="1181.596" y="125.678" fill="#FFB55D" width="46.841" height="64.91"/>
			</g>
			<g id="XMLID_446_">
				<polygon id="XMLID_447_" fill="#FFB55D" points="1158.088,611.978 1188.279,647.79 1107.239,716.109 1071.936,677.569 				"/>
			</g>
			<g id="XMLID_448_">
				<polygon id="XMLID_449_" fill="#FFB55D" points="1096.719,623.889 1119.078,664.043 1126.042,655.156 				"/>
			</g>
		</g>
	</g>
</g>
</svg>
