<svg xmlns="http://www.w3.org/2000/svg" viewBox="0 0 926.404 925.889"><defs><style>.cls-1{fill:#161313;}.cls-2{fill:#352e2e;}.cls-3{fill:#e8d8c8;}.cls-4,.cls-7{fill:none;}.cls-5,.cls-8{fill:#df9f51;}.cls-5{stroke:#e0a051;}.cls-5,.cls-7{stroke-miterlimit:10;}.cls-6{fill:#8e6a47;}.cls-7{stroke:#161313;stroke-width:9px;}</style></defs><g id="Layer_2" data-name="Layer 2"><g id="Capa_1" data-name="Capa 1"><path class="cls-1" d="M870.438,243.1C748.746,18.6,468.106-64.74,243.611,56.951S-64.226,459.281,57.464,683.777,459.8,991.613,684.291,869.923,992.128,467.592,870.438,243.1ZM555.78,632.845c-93.561,50.716-210.52,15.982-261.237-77.58s-15.983-210.52,77.576-261.238,210.524-15.981,261.24,77.58S649.341,582.128,555.78,632.845Z"/><path class="cls-2" d="M70.873,706.69q42.858-24.008,85.465-48.456c49.723-28.444,99.329-57.092,149.167-85.336a194.523,194.523,0,0,1-10.963-17.845c-50.715-93.56-15.983-210.52,77.577-261.239a193.041,193.041,0,0,1,44.874-17.522q-23.452-28.054-46.364-56.554c-17.117-21.376-33.837-42.98-51.688-63.76-27.348-31.834-55.611-62.923-82.03-95.529C17.47,184.052-63.008,461.317,57.464,683.564Q63.875,695.393,70.873,706.69Z"/><path class="cls-2" d="M870.437,242.884c-.152-.281-.308-.557-.461-.837q-48.963,19.787-97.548,40.493c-30.287,12.961-60.206,26.781-90.628,39.419-20.889,8.677-42.059,17.19-62.093,27.791a194.355,194.355,0,0,1,13.651,21.644c49.818,91.9,17.182,206.375-72.661,258.472,8.694,8.443,17.042,17.246,25.133,26.278,27.639,30.852,53.07,63.662,79.832,95.267,23.942,28.274,49.135,55.466,73.113,83.705C921.546,700.4,981.715,448.171,870.437,242.884Z"/><path class="cls-1" d="M472.531,479.263a18,18,0,1,1,7.247-24.407,18.006,18.006,0,0,1-7.247,24.407"/><path class="cls-3" d="M468.074,471.043a8.651,8.651,0,1,1,3.482-11.729,8.654,8.654,0,0,1-3.482,11.729"/><path class="cls-4" d="M506.692,902.6A441.73,441.73,0,0,1,29.415,540.058l-16.86,2.971A456.516,456.516,0,0,0,61.012,681.854c96.274,177.606,293.7,266.122,482.532,232.978l-2.973-16.859Q523.778,900.925,506.692,902.6Z"/><path class="cls-4" d="M539.04,889.288l-2.706-15.347a414.881,414.881,0,0,1-190.99-11.107C238.662,831.155,150.7,759.824,97.667,661.985A417.405,417.405,0,0,1,53.445,535.82L38.1,538.526A430.693,430.693,0,0,0,83.816,669.494C174.642,837.046,360.9,920.557,539.04,889.288Z"/><path class="cls-4" d="M351.923,840.678A394.568,394.568,0,0,1,76.218,531.8l-13.992,2.47a406.238,406.238,0,0,0,43.116,123.552c85.68,158.064,261.386,236.837,429.445,207.337l-2.468-13.992A391.847,391.847,0,0,1,351.923,840.678Z"/><path class="cls-4" d="M364,800.024A352.05,352.05,0,0,1,118,524.437l-11.53,2.033a361.435,361.435,0,0,0,38.368,109.944c76.247,140.656,232.6,210.753,382.146,184.5l-2.034-11.529A349.6,349.6,0,0,1,364,800.024Z"/><path class="cls-4" d="M530.772,842.4l-2.243-12.727A372.57,372.57,0,0,1,97.713,528.014l-12.728,2.244A383.3,383.3,0,0,0,125.66,646.812C206.487,795.923,372.236,870.23,530.772,842.4Z"/><path class="cls-5" d="M326.545,209.95a287.134,287.134,0,0,1,87.335-30.477l-1.227-6.958A295.821,295.821,0,0,0,173.03,514.733l6.957-1.226C159.136,394.714,214.815,270.515,326.545,209.95Z"/><path class="cls-5" d="M309.538,178.575a322.748,322.748,0,0,1,98.146-34.251l-1.23-6.972A331.589,331.589,0,0,0,137.866,520.934l6.974-1.229C121.407,386.207,183.979,246.636,309.538,178.575Z"/><path class="cls-5" d="M290.452,143.362A362.581,362.581,0,0,1,400.727,104.87l-1.219-6.908A371.466,371.466,0,0,0,94.593,499.385q1.392,14.37,3.883,28.5l6.909-1.22C79.057,376.662,149.372,219.837,290.452,143.362Z"/><path class="cls-5" d="M138.96,203.646a417.416,417.416,0,0,0-89.118,300.1q1.56,16.105,4.354,31.947l6.919-1.221c-29.58-168.52,49.416-344.708,207.916-430.624A407.357,407.357,0,0,1,392.92,60.6l-1.22-6.917A417.723,417.723,0,0,0,138.96,203.646Z"/><path class="cls-5" d="M604.661,723.02a295.763,295.763,0,0,0,150.21-310.881l-6.958,1.227c20.852,118.793-34.827,242.992-146.557,303.556A287.129,287.129,0,0,1,514.022,747.4l1.227,6.959A295.854,295.854,0,0,0,604.661,723.02Z"/><path class="cls-5" d="M621.669,754.394A331.5,331.5,0,0,0,790.034,405.939l-6.971,1.228c23.43,133.5-39.14,273.07-164.7,341.13a322.649,322.649,0,0,1-98.143,34.25l1.228,6.974A331.6,331.6,0,0,0,621.669,754.394Z"/><path class="cls-5" d="M753.822,695.153a372.321,372.321,0,0,0,79.487-267.664q-1.392-14.37-3.884-28.494l-6.908,1.215c26.329,150-43.986,306.826-185.066,383.3A362.61,362.61,0,0,1,527.176,822l1.218,6.909A372.588,372.588,0,0,0,753.822,695.153Z"/><path class="cls-5" d="M658.872,823.028a407.334,407.334,0,0,1-123.89,43.244l1.219,6.92a416.472,416.472,0,0,0,341.858-450.06q-1.558-16.107-4.352-31.946l-6.919,1.219C896.366,560.922,817.37,737.113,658.872,823.028Z"/><path class="cls-6" d="M717.434,326.026a287.133,287.133,0,0,1,30.479,87.334l6.958-1.227A295.824,295.824,0,0,0,412.648,172.516l1.227,6.957C532.667,158.62,656.868,214.3,717.434,326.026Z"/><path class="cls-6" d="M748.809,309.019a322.732,322.732,0,0,1,34.253,98.144l6.972-1.23A331.589,331.589,0,0,0,406.446,137.352l1.23,6.975C541.173,120.891,680.746,183.461,748.809,309.019Z"/><path class="cls-6" d="M784.021,289.931a362.592,362.592,0,0,1,38.5,110.274l6.908-1.218A371.467,371.467,0,0,0,428,94.079q-14.37,1.392-28.5,3.884l1.22,6.908C550.718,78.541,707.544,148.853,784.021,289.931Z"/><path class="cls-6" d="M723.735,138.44a417.42,417.42,0,0,0-300.1-89.112q-16.105,1.56-31.947,4.354l1.221,6.92c168.52-29.584,344.709,49.41,430.628,207.908A407.349,407.349,0,0,1,866.788,392.4l6.917-1.22A417.723,417.723,0,0,0,723.735,138.44Z"/><path class="cls-6" d="M204.37,604.151A295.763,295.763,0,0,0,515.253,754.356l-1.227-6.958c-118.793,20.854-242.993-34.823-303.559-146.552a287.126,287.126,0,0,1-30.478-87.333l-6.959,1.226A295.867,295.867,0,0,0,204.37,604.151Z"/><path class="cls-6" d="M173,621.159a331.5,331.5,0,0,0,348.458,168.36l-1.228-6.972c-133.5,23.432-273.071-39.134-341.133-164.693a322.681,322.681,0,0,1-34.252-98.143l-6.974,1.228A331.585,331.585,0,0,0,173,621.159Z"/><path class="cls-6" d="M232.239,753.312a372.313,372.313,0,0,0,267.666,79.481q14.37-1.392,28.494-3.884L527.183,822c-150,26.332-306.826-43.98-383.3-185.058a362.6,362.6,0,0,1-38.5-110.275l-6.909,1.218A372.6,372.6,0,0,0,232.239,753.312Z"/><path class="cls-6" d="M104.363,658.364A407.336,407.336,0,0,1,61.116,534.475L54.2,535.694a416.473,416.473,0,0,0,450.065,341.85q16.108-1.56,31.947-4.353l-1.219-6.919C366.473,895.854,190.281,816.861,104.363,658.364Z"/><path class="cls-7" d="M547.429,617.436a175.171,175.171,0,1,1,70.522-237.477,175.169,175.169,0,0,1-70.522,237.477"/><path class="cls-8" d="M245.854,62.454A453.784,453.784,0,0,1,383.836,14.29l-1.284-7.277A463.412,463.412,0,0,0,2.17,507.791q1.737,17.924,4.843,35.547l7.278-1.283C-18.653,354.368,69.328,158.142,245.854,62.454Z"/><path class="cls-8" d="M824.559,752.011A464.471,464.471,0,0,0,923.719,418.1q-1.737-17.922-4.843-35.545l-7.275,1.281c32.943,187.686-55.038,383.912-231.565,479.6A453.8,453.8,0,0,1,542.056,911.6l1.283,7.276a464.834,464.834,0,0,0,281.22-166.867Z"/><path class="cls-6" d="M863.432,245.846A453.792,453.792,0,0,1,911.6,383.828l7.277-1.285A463.413,463.413,0,0,0,418.09,2.171q-17.922,1.737-35.546,4.844l1.282,7.278C571.513-18.655,767.741,69.323,863.432,245.846Z"/><path class="cls-6" d="M173.886,824.565A464.481,464.481,0,0,0,507.8,923.718q17.922-1.737,35.545-4.843l-1.281-7.276C354.379,944.546,158.152,856.568,62.456,680.043A453.757,453.757,0,0,1,14.289,542.064l-7.275,1.283A464.834,464.834,0,0,0,173.886,824.565Z"/></g></g></svg>